<?xml version="1.0" encoding="UTF-8"?>
<svg id="_圖層_1" data-name="圖層_1" xmlns="http://www.w3.org/2000/svg" version="1.1" viewBox="0 0 482.02 202.04">
  <!-- Generator: Adobe Illustrator 29.8.3, SVG Export Plug-In . SVG Version: 2.1.1 Build 3)  -->
  <defs>
    <style>
      .st0 {
        fill: #1b2949;
      }
    </style>
  </defs>
  <polygon class="st0" points="482.02 134.7 482.02 155.97 255.19 155.97 166.6 26.58 23.1 24.76 0 .02 175.44 .02 271.14 134.7 482.02 134.7"/>
  <path class="st0" d="M159.49,42.55l74.43,113.42h-122.28L31.9,42.55h127.59ZM187.85,131.16l-44.3-63.8h-62.03l38.99,63.8h67.34Z"/>
  <polygon class="st0" points="478.48 173.69 478.48 202.04 143.54 202.04 124.05 173.69 478.48 173.69"/>
  <path class="st0" d="M289.82,2.36v83.29c0,15.21,38.99,18.85,38.99-3.54V2.36h21.27v86.84c0,16.53-25.23,30.4-40.76,30.4s-40.76-13.87-40.76-30.4V2.36h21.27Z"/>
  <path class="st0" d="M418.45,28.43c-3.57-3.57-6.75-7.5-11.01-9.63-13.74-6.85-24.72,13.1-11.93,21.59,16.17,10.73,48.7,5.99,47.33,42.61-1.78,47.64-78.77,43.91-77.77-4.99,26.94-4.04,16.89,3.4,26.23,14.42,11.44,13.5,33.57,5.44,30.63-12.58-2.53-15.54-38.44-13.69-49.36-28.86-30.62-42.55,43.5-70.23,62.57-34.76,5.64,10.49-8.27,20.62-16.69,12.2Z"/>
  <path class="st0" d="M482.02.02v116.96c-13.87-.2-13.64.13-21.27,0V.02h21.27Z"/>
</svg>